# xmcd
#
# Track frame offsets: 
#        150
#        18546
#        30014
#        46888
#        66459
#        83185
#        100596
#        115129
#        128619
#        147445
#        158485
#        174015
#        186614
#        219465
#        237414
#        248995
#        270756
#        286032
#        309979
#
# Disc length: 4337 seconds
#
# Revision: 0
# Processed by: cddbd v1.5.2PL0 Copyright (c) Steve Scherf et al.
# Submitted via: ExactAudioCopy v0.95b4
#
DISCID=f410ef13
DTITLE=Homesick James-Roosevelt Sykes-Eddie Taylor - Chicago Blues Fes
DTITLE=tival '70
DYEAR=1900
DGENRE=Blues
TTITLE0=Shake Your Money Maker
TTITLE1=I've Got To Move
TTITLE2=Can't Do It
TTITLE3=Homesick's Rock
TTITLE4=Thats's All Right For You
TTITLE5=I Believe My Baby's Gone
TTITLE6=Look On Yonder Wall
TTITLE7=Go Away
TTITLE8=Miss Durty Gurty Blues
TTITLE9=Put Up Or Shut Up
TTITLE10=Domestic Nurse Blues
TTITLE11=Thanks But No Thanks
TTITLE12=Mighty Men
TTITLE13=Ride On, Little Girl, Ride On
TTITLE14=I Feel So Bad
TTITLE15=Rockin' On 83 Highway
TTITLE16=Ride'em On Down
TTITLE17=38 Pistol
TTITLE18=Big Town Playboy
EXTD=
EXTT0=
EXTT1=
EXTT2=
EXTT3=
EXTT4=
EXTT5=
EXTT6=
EXTT7=
EXTT8=
EXTT9=
EXTT10=
EXTT11=
EXTT12=
EXTT13=
EXTT14=
EXTT15=
EXTT16=
EXTT17=
EXTT18=
PLAYORDER=
